<svg width="128" height="39" viewBox="0 0 128 39" fill="none" xmlns="http://www.w3.org/2000/svg">
<g clip-path="url(#clip0_148_7752)">
<path d="M19.473 38.9461C30.2277 38.9461 38.9461 30.2277 38.9461 19.4731C38.9461 8.71838 30.2277 0 19.473 0C8.71838 0 0 8.71838 0 19.4731C0 30.2277 8.71838 38.9461 19.473 38.9461Z" fill="#FCFDFF"/>
<path d="M22.7616 14.2152L18.4353 14.7594L19.1133 10.5669L23.0153 10.0595C23.2182 10.0319 23.3889 10.2071 23.3566 10.4101L22.7616 14.2152Z" fill="#EB2027"/>
<path d="M24.7079 27.6691L20.3816 28.2134L21.0596 24.0208L25.0031 23.5042C25.1876 23.4812 25.3398 23.638 25.3121 23.8178L24.7079 27.6645V27.6691Z" fill="#EB2027"/>
<path d="M20.3908 28.2134L16.0645 28.7576L17.7756 18.9611L22.0835 18.3984L20.3908 28.2134Z" fill="#EB2027"/>
<path d="M17.7711 18.9659L13.7676 19.4686C13.6062 19.4871 13.4725 19.3487 13.4955 19.1873L14.1228 15.3176L18.4307 14.7549L17.7711 18.9659Z" fill="#EB2027"/>
<path d="M65.3098 4.81982C66.0939 4.81982 66.878 4.81982 67.6621 4.81982C67.6621 6.9876 67.6621 9.15076 67.6621 11.3231C68.8659 10.2577 70.0143 9.12769 71.1582 7.99769C72.136 7.98846 73.1092 7.98846 74.087 7.99769C72.957 9.19227 71.7808 10.3453 70.6278 11.5169C71.91 13.1035 73.1415 14.7362 74.4467 16.3044C73.5381 16.2537 72.6295 16.2906 71.7255 16.2675C71.375 16.3136 71.2135 15.9308 71.006 15.7325C70.3003 14.8239 69.5577 13.9429 68.8613 13.0343C68.4646 13.4586 67.948 13.8045 67.6851 14.3303C67.6344 14.9761 67.6713 15.6264 67.6759 16.2767C66.8872 16.2767 66.0985 16.2767 65.3098 16.2767C65.319 12.4578 65.3098 8.63879 65.3144 4.82444L65.3098 4.81982Z" fill="#FCFDFF"/>
<path d="M96.3459 4.81982C97.1438 4.85672 97.9417 4.86133 98.7397 4.86595C98.7166 7.01527 98.735 9.1692 98.7258 11.3231C99.925 10.2208 101.083 9.08157 102.296 7.99307C103.241 7.99769 104.196 7.94234 105.142 8.06687C103.933 9.15537 102.845 10.3638 101.682 11.503C102.932 13.0989 104.196 14.6855 105.446 16.2813C104.436 16.2675 103.426 16.2906 102.42 16.2352C101.645 15.119 100.723 14.109 99.8973 13.0251C99.5053 13.4494 99.0302 13.8138 98.7397 14.3211C98.6935 14.9715 98.7258 15.6218 98.7304 16.2721C97.9279 16.2721 97.1207 16.2721 96.3228 16.2721C96.3367 12.4578 96.2951 8.63879 96.3459 4.82444V4.81982Z" fill="#FCFDFF"/>
<path d="M49.3929 6.20329C50.1908 6.21251 50.9888 6.2079 51.7913 6.18945C51.7959 6.87668 51.7959 7.56853 51.7959 8.26037C52.4785 8.25114 53.1612 8.24653 53.8438 8.23731C53.8438 8.84151 53.8438 9.45034 53.853 10.0592C53.175 10.0499 52.497 10.0453 51.8144 10.0315C51.8098 11.3368 51.7221 12.6466 51.8513 13.9427C52.1603 14.8283 53.1981 14.5238 53.8761 14.3624C54.0513 14.9067 54.2497 15.4509 54.4572 15.9905C53.3503 16.521 52.0311 16.604 50.8827 16.1704C50.0202 15.8337 49.4759 14.9436 49.4252 14.0349C49.356 12.7112 49.416 11.3875 49.4021 10.0592C48.9686 10.0545 48.535 10.0499 48.0969 10.0453C48.0969 9.44111 48.0969 8.8369 48.0876 8.22808C48.4151 8.23731 49.0701 8.25114 49.3929 8.26037C49.3929 7.57314 49.3929 6.88591 49.3929 6.20329Z" fill="#FCFDFF"/>
<path d="M122.894 6.19434C123.697 6.20817 124.499 6.21278 125.302 6.20356C125.288 6.89079 125.288 7.57341 125.306 8.26064C125.994 8.2468 126.681 8.24219 127.373 8.23758C127.373 8.84179 127.373 9.44599 127.382 10.0502C126.681 10.0456 125.98 10.0502 125.283 10.0733C125.348 11.3739 125.15 12.7023 125.408 13.9845C125.712 14.787 126.704 14.5979 127.317 14.2981C127.543 14.8377 127.769 15.3774 128.005 15.917C126.667 16.7242 124.638 16.7057 123.521 15.5296C122.438 13.9384 123.042 11.8859 122.917 10.0963C122.479 10.0733 122.041 10.0548 121.603 10.0364C121.607 9.44599 121.603 8.85562 121.594 8.26525C122.027 8.26064 122.461 8.25141 122.899 8.24219C122.89 7.56418 122.89 6.88618 122.899 6.20356L122.894 6.19434Z" fill="#FCFDFF"/>
<path d="M77.7124 8.90644C78.8517 7.79949 80.6412 7.56888 82.0849 8.1408C83.261 8.6297 83.8698 9.90731 83.9021 11.1296C83.9667 12.8361 83.8744 14.5519 83.9482 16.2584C83.1319 16.2769 82.3201 16.2769 81.5037 16.2584C81.4945 14.5426 81.6329 12.813 81.4299 11.1111C81.1163 9.39996 78.3674 9.57522 77.9892 11.1665C77.634 12.8361 77.8923 14.5795 77.8323 16.2769C77.0344 16.2723 76.2365 16.2676 75.4386 16.2676C75.434 13.5095 75.4386 10.7514 75.4386 7.99321H77.7263C77.7263 8.21921 77.7124 8.68044 77.7124 8.90644Z" fill="#FCFDFF"/>
<path d="M89.2247 7.91023C90.6129 7.71651 92.1304 7.93329 93.2281 8.86497C95.1514 10.4331 95.1791 13.7448 93.2973 15.3591C91.0188 17.347 86.6925 16.5905 85.7885 13.5141C84.9398 11.0835 86.6049 8.16851 89.22 7.91023H89.2247ZM89.1831 10.018C87.4443 10.9128 87.6841 14.0722 89.6997 14.4551C91.0788 14.8194 92.4117 13.4911 92.2411 12.1212C92.4394 10.5162 90.6129 9.24779 89.1831 10.018Z" fill="#FCFDFF"/>
<path d="M108.758 9.01701C109.514 8.21447 110.57 7.89161 111.64 7.80859C111.64 8.54195 111.64 9.2753 111.65 10.0087C110.575 9.8749 109.256 10.2854 109.007 11.4754C108.767 13.0574 108.919 14.6671 108.901 16.2675C108.089 16.2721 107.277 16.2721 106.465 16.2675C106.507 13.5094 106.479 10.7512 106.479 7.9977C107.254 8.01153 108.038 7.9239 108.804 8.06227C108.795 8.30211 108.767 8.77717 108.758 9.01701Z" fill="#FCFDFF"/>
<path d="M112.766 8.7635C114.44 7.83643 116.497 7.55969 118.333 8.13162C119.619 8.53289 120.39 9.87045 120.371 11.1757C120.38 12.873 120.348 14.5704 120.376 16.2677C119.615 16.2631 118.854 16.2631 118.093 16.2631C118.111 16.0371 118.148 15.5943 118.167 15.3683C116.986 16.7704 114.643 16.7843 113.25 15.705C112.088 14.7502 112.203 12.6932 113.527 11.9229C114.915 11.1665 116.557 11.4663 118.065 11.4063C117.904 10.9174 117.83 10.3178 117.341 10.0319C116.142 9.38616 114.721 9.81971 113.628 10.4793C113.314 9.92118 113.024 9.34926 112.766 8.7635ZM115.307 14.6303C116.529 15.3775 118.379 14.2798 118.037 12.79C117.143 12.8361 116.179 12.6332 115.33 12.9745C114.624 13.2512 114.624 14.3351 115.307 14.6303Z" fill="#FCFDFF"/>
<path d="M57.1876 8.33419C59.1155 7.37944 61.8829 7.76226 63.059 9.69942C63.6725 10.5942 63.7001 11.7104 63.737 12.7574C61.6015 12.8265 59.4661 12.7574 57.3352 12.7943C57.8333 14.7822 60.5407 15.0451 61.8737 13.7352C62.3026 14.1918 62.7362 14.653 63.1697 15.1096C61.0342 17.3097 56.5834 16.8254 55.3012 13.915C54.4248 11.9318 55.1859 9.30738 57.1876 8.33419ZM57.2937 11.4152C58.705 11.4152 60.1118 11.4152 61.5231 11.4198C61.2418 10.5665 60.6422 9.71787 59.669 9.64407C58.5205 9.45497 57.5381 10.3405 57.2937 11.4106V11.4152Z" fill="#FCFDFF"/>
<path d="M82.0341 22.1113C82.8274 22.1206 83.6207 22.1206 84.414 22.1113C84.3909 25.9349 84.414 29.7493 84.4002 33.5728H82.0756C82.0986 33.3468 82.1494 32.8948 82.1724 32.6735C80.4567 34.3754 77.2004 33.9326 75.9874 31.8432C75.111 30.3535 75.1433 28.3517 76.0335 26.8804C77.2696 24.8879 80.3275 24.4913 82.0756 26.0318C82.0018 24.7265 82.0387 23.4212 82.0341 22.1113ZM78.787 27.3693C77.1312 28.3886 77.5509 31.4973 79.5942 31.7187C81.1808 32.0508 82.403 30.335 82.0341 28.8775C81.8634 27.4062 80.0231 26.5022 78.787 27.3693Z" fill="#FCFDFF"/>
<path d="M51.3532 26.0965C52.7922 24.7082 55.4766 24.6943 56.6988 26.3686C57.8888 25.0818 59.8998 24.7312 61.4772 25.4692C62.4826 25.9673 63.0269 27.0789 63.0684 28.1628C63.133 29.9616 63.0684 31.7696 63.0915 33.573H60.6746C60.6377 31.788 60.7992 29.9892 60.5778 28.2135C60.1442 26.59 57.5567 26.9636 57.3676 28.5502C57.1186 30.2106 57.3307 31.9033 57.2477 33.5776C56.459 33.5776 55.6795 33.5776 54.8954 33.5776C54.8124 31.7973 55.043 29.9938 54.7617 28.232C54.4112 26.7053 51.9759 26.8852 51.6069 28.315C51.2563 30.04 51.5054 31.8249 51.4408 33.5776C50.6383 33.5776 49.8404 33.5776 49.0378 33.5776C49.0701 30.8056 49.0009 28.0336 49.0747 25.2616C49.8312 25.2847 50.5922 25.2939 51.3532 25.2893V26.1057V26.0965Z" fill="#FCFDFF"/>
<path d="M86.3695 26.0269C87.9469 25.1228 89.861 24.8599 91.6321 25.2889C92.8498 25.5795 93.823 26.668 93.9291 27.9271C94.0582 29.7997 93.9291 31.6769 93.9982 33.5541C93.2418 33.5772 92.49 33.5725 91.7382 33.5725C91.7613 33.3373 91.812 32.8669 91.8351 32.6363C90.6682 33.8816 88.6434 34.0245 87.1951 33.222C85.7469 32.3964 85.6546 29.9473 87.1813 29.1586C88.5465 28.416 90.1608 28.7481 91.646 28.6605C91.5168 28.1577 91.4338 27.5212 90.8988 27.2768C89.7181 26.6264 88.2882 27.0969 87.209 27.7334C86.9276 27.1615 86.6417 26.5942 86.3649 26.0176L86.3695 26.0269ZM89.0677 30.1502C88.4312 30.367 88.1314 31.271 88.7034 31.7138C89.5797 32.5117 91.0095 32.0182 91.5952 31.0865C91.5952 30.8328 91.586 30.3255 91.5814 30.0718C90.7466 30.0764 89.9025 30.0349 89.0677 30.1502Z" fill="#FCFDFF"/>
<path d="M65.3008 25.2798H67.6669C67.7176 26.9956 67.5331 28.7298 67.773 30.4317C68.0866 32.0829 70.711 32.0045 71.1122 30.4548C71.5089 28.7667 71.1999 27.0002 71.2967 25.2798H73.6721C73.6721 28.0472 73.6721 30.8099 73.6721 33.5727C72.911 33.5727 72.15 33.5727 71.3936 33.5727C71.4074 33.3467 71.4305 32.8854 71.4443 32.6548C70.3282 33.771 68.5663 33.9785 67.1457 33.3928C65.9788 32.9177 65.3192 31.6355 65.3192 30.4225C65.2962 28.7067 65.3285 26.9956 65.3054 25.2798H65.3008Z" fill="#FCFDFF"/>
</g>
<defs>
<clipPath id="clip0_148_7752">
<rect width="128" height="38.9415" fill="white"/>
</clipPath>
</defs>
</svg>
