<svg width="61" height="61" viewBox="0 0 61 61" fill="none" xmlns="http://www.w3.org/2000/svg">
<rect y="0.882812" width="60.01" height="60.01" rx="30.005" fill="#F5062F"/>
<g clip-path="url(#clip0_197_130)">
<path d="M21.0134 26.2028L16.8027 26.7341L17.463 22.629L21.2579 22.1299C21.4544 22.1046 21.6212 22.2771 21.5915 22.4749L21.0111 26.2028H21.0134Z" fill="#FCFDFF"/>
<path d="M22.908 39.3806L18.6973 39.9118L19.3575 35.8067L23.1936 35.3031C23.3718 35.2801 23.5203 35.4342 23.4928 35.6135L22.9057 39.3806H22.908Z" fill="#FCFDFF"/>
<path d="M18.7104 39.9116L14.502 40.4451L16.1652 30.8527L20.3554 30.3008L18.7104 39.9116Z" fill="#FCFDFF"/>
<path d="M45.4622 36.2483L38.8594 37.1452L39.5197 33.0401L44.859 32.288L45.75 32.1707C45.9282 32.1477 46.0767 32.3018 46.0493 32.4812L45.4622 36.2483Z" fill="#FCFDFF"/>
<path d="M39.6967 37.0369L35.4883 37.5705L36.8043 29.5856L40.9944 29.0337L39.6967 37.0369Z" fill="#FCFDFF"/>
<path d="M38.0279 22.6425L44.6307 21.7456L43.9704 25.8507L38.6311 26.6027L37.7401 26.72C37.5619 26.743 37.4134 26.5889 37.4408 26.4096L38.0279 22.6425Z" fill="#FCFDFF"/>
<path d="M43.7895 21.8516L48.0002 21.3203L46.337 30.9127L42.1445 31.4647L43.7895 21.8516Z" fill="#FCFDFF"/>
<path d="M33.2517 37.9592L29.041 38.4904L29.7013 34.3853L33.5373 33.8817C33.7155 33.8587 33.864 34.0128 33.8366 34.1921L33.2494 37.9592H33.2517Z" fill="#FCFDFF"/>
<path d="M29.0561 38.4907L24.8477 39.0219L26.5109 29.4295L30.7011 28.8799L29.0561 38.4907Z" fill="#FCFDFF"/>
<path d="M27.3401 24.1489L35.4919 23.1163C35.6176 23.1002 35.725 23.2129 35.7021 23.3394L35.0578 27.0696C35.0441 27.1524 34.9779 27.2145 34.8956 27.226L27.0545 28.2264C26.8763 28.2494 26.7278 28.0953 26.7552 27.9159L27.3424 24.1489H27.3401Z" fill="#FCFDFF"/>
<path d="M16.1632 30.8574L12.2678 31.3496C12.1102 31.3703 11.9799 31.2323 12.0051 31.0759L12.6128 27.2858L16.8029 26.7339L16.1609 30.8574H16.1632Z" fill="#FCFDFF"/>
</g>
<defs>
<clipPath id="clip0_197_130">
<rect width="36" height="19.125" fill="white" transform="translate(12 21.3203)"/>
</clipPath>
</defs>
</svg>
