<svg width="128" height="40" viewBox="0 0 128 40" fill="none" xmlns="http://www.w3.org/2000/svg">
<g clip-path="url(#clip0_167_122)">
<path d="M19.473 39.8875C30.2277 39.8875 38.9461 31.1691 38.9461 20.4145C38.9461 9.65979 30.2277 0.941406 19.473 0.941406C8.71838 0.941406 0 9.65979 0 20.4145C0 31.1691 8.71838 39.8875 19.473 39.8875Z" fill="#EB2027"/>
<path d="M22.7599 15.1566L18.4336 15.7008L19.1116 11.5083L23.0136 11.0009C23.2165 10.9733 23.3872 11.1485 23.3549 11.3515L22.7599 15.1566Z" fill="white"/>
<path d="M24.7072 28.6105L20.3809 29.1548L21.0589 24.9622L25.0024 24.4456C25.1869 24.4226 25.3391 24.5794 25.3114 24.7593L24.7072 28.6059V28.6105Z" fill="white"/>
<path d="M20.3908 29.1548L16.0645 29.699L17.7756 19.9025L22.0835 19.3398L20.3908 29.1548Z" fill="white"/>
<path d="M17.7704 19.9073L13.7669 20.41C13.6055 20.4285 13.4717 20.2901 13.4948 20.1287L14.1221 16.259L18.4299 15.6963L17.7704 19.9073Z" fill="white"/>
<path d="M65.3105 5.76123C66.0946 5.76123 66.8787 5.76123 67.6628 5.76123C67.6628 7.929 67.6628 10.0922 67.6628 12.2645C68.8666 11.1991 70.0151 10.0691 71.1589 8.93909C72.1367 8.92987 73.1099 8.92987 74.0877 8.93909C72.9577 10.1337 71.7816 11.2867 70.6285 12.4583C71.9107 14.0449 73.1422 15.6776 74.4475 17.2458C73.5389 17.1951 72.6302 17.232 71.7262 17.2089C71.3757 17.255 71.2143 16.8722 71.0067 16.6739C70.301 15.7653 69.5585 14.8843 68.862 13.9757C68.4653 14.4 67.9488 14.746 67.6859 15.2718C67.6351 15.9175 67.672 16.5678 67.6766 17.2181C66.8879 17.2181 66.0992 17.2181 65.3105 17.2181C65.3198 13.3992 65.3105 9.5802 65.3152 5.76584L65.3105 5.76123Z" fill="#21455F"/>
<path d="M96.3464 5.76123C97.1443 5.79813 97.9422 5.80274 98.7401 5.80735C98.7171 7.95668 98.7355 10.1106 98.7263 12.2645C99.9255 11.1622 101.083 10.023 102.296 8.93448C103.242 8.93909 104.196 8.88374 105.142 9.00828C103.934 10.0968 102.845 11.3052 101.683 12.4444C102.933 14.0403 104.196 15.6269 105.446 17.2227C104.436 17.2089 103.426 17.232 102.421 17.1766C101.646 16.0605 100.723 15.0504 99.8978 13.9665C99.5058 14.3908 99.0307 14.7552 98.7401 15.2625C98.694 15.9129 98.7263 16.5632 98.7309 17.2135C97.9284 17.2135 97.1212 17.2135 96.3233 17.2135C96.3371 13.3992 96.2956 9.5802 96.3464 5.76584V5.76123Z" fill="#21455F"/>
<path d="M49.3932 7.1447C50.1911 7.15392 50.989 7.14931 51.7916 7.13086C51.7962 7.81809 51.7962 8.50993 51.7962 9.20177C52.4788 9.19255 53.1614 9.18794 53.844 9.17871C53.844 9.78292 53.844 10.3917 53.8532 11.0006C53.1752 10.9913 52.4972 10.9867 51.8146 10.9729C51.81 12.2782 51.7224 13.5881 51.8515 14.8841C52.1605 15.7697 53.1983 15.4652 53.8763 15.3038C54.0516 15.8481 54.2499 16.3923 54.4574 16.932C53.3505 17.4624 52.0314 17.5454 50.8829 17.1118C50.0204 16.7751 49.4762 15.885 49.4255 14.9763C49.3563 13.6526 49.4162 12.3289 49.4024 11.0006C48.9688 10.996 48.5353 10.9913 48.0971 10.9867C48.0971 10.3825 48.0971 9.77831 48.0879 9.16949C48.4154 9.17871 49.0703 9.19255 49.3932 9.20177C49.3932 8.51454 49.3932 7.82731 49.3932 7.1447Z" fill="#21455F"/>
<path d="M122.894 7.13574C123.697 7.14958 124.499 7.15419 125.302 7.14497C125.288 7.8322 125.288 8.51481 125.307 9.20204C125.994 9.18821 126.681 9.18359 127.373 9.17898C127.373 9.78319 127.373 10.3874 127.382 10.9916C126.681 10.987 125.98 10.9916 125.284 11.0147C125.348 12.3153 125.15 13.6437 125.408 14.9259C125.713 15.7284 126.704 15.5393 127.318 15.2395C127.544 15.7792 127.77 16.3188 128.005 16.8584C126.667 17.6656 124.638 17.6471 123.522 16.471C122.438 14.8798 123.042 12.8273 122.917 11.0377C122.479 11.0147 122.041 10.9962 121.603 10.9778C121.608 10.3874 121.603 9.79703 121.594 9.20666C122.027 9.20204 122.461 9.19282 122.899 9.18359C122.89 8.50559 122.89 7.82758 122.899 7.14497L122.894 7.13574Z" fill="#21455F"/>
<path d="M77.7134 9.84785C78.8526 8.7409 80.6422 8.51029 82.0858 9.08221C83.262 9.57111 83.8708 10.8487 83.9031 12.071C83.9677 13.7775 83.8754 15.4933 83.9492 17.1998C83.1328 17.2183 82.3211 17.2183 81.5047 17.1998C81.4955 15.4841 81.6338 13.7544 81.4309 12.0525C81.1173 10.3414 78.3683 10.5166 77.9901 12.1079C77.635 13.7775 77.8933 15.521 77.8333 17.2183C77.0354 17.2137 76.2375 17.209 75.4395 17.209C75.4349 14.4509 75.4395 11.6928 75.4395 8.93462H77.7272C77.7272 9.16062 77.7134 9.62185 77.7134 9.84785Z" fill="#21455F"/>
<path d="M89.2256 8.85163C90.6139 8.65792 92.1314 8.87469 93.2291 9.80637C95.1524 11.3746 95.1801 14.6862 93.2983 16.3005C91.0198 18.2884 86.6935 17.5319 85.7895 14.4556C84.9408 12.0249 86.6059 9.10992 89.221 8.85163H89.2256ZM89.1841 10.9594C87.4453 11.8542 87.6851 15.0136 89.7007 15.3965C91.0798 15.7608 92.4127 14.4325 92.2421 13.0626C92.4404 11.4576 90.6139 10.1892 89.1841 10.9594Z" fill="#21455F"/>
<path d="M108.757 9.95842C109.514 9.15588 110.57 8.83302 111.64 8.75C111.64 9.48335 111.64 10.2167 111.649 10.9501C110.574 10.8163 109.255 11.2268 109.006 12.4168C108.766 13.9988 108.919 15.6085 108.9 17.2089C108.088 17.2135 107.277 17.2135 106.465 17.2089C106.506 14.4508 106.479 11.6926 106.479 8.9391C107.254 8.95294 108.038 8.86531 108.803 9.00368C108.794 9.24351 108.766 9.71858 108.757 9.95842Z" fill="#21455F"/>
<path d="M112.767 9.70491C114.441 8.77784 116.498 8.5011 118.334 9.07302C119.62 9.47429 120.391 10.8119 120.372 12.1171C120.381 13.8144 120.349 15.5118 120.377 17.2091C119.616 17.2045 118.855 17.2045 118.094 17.2045C118.112 16.9785 118.149 16.5357 118.168 16.3097C116.987 17.7118 114.644 17.7257 113.251 16.6464C112.089 15.6916 112.204 13.6346 113.528 12.8643C114.916 12.1079 116.558 12.4077 118.066 12.3477C117.905 11.8588 117.831 11.2592 117.342 10.9733C116.143 10.3276 114.722 10.7611 113.629 11.4207C113.315 10.8626 113.025 10.2907 112.767 9.70491ZM115.308 15.5717C116.53 16.3189 118.38 15.2212 118.038 13.7314C117.144 13.7775 116.18 13.5746 115.331 13.9159C114.625 14.1927 114.625 15.2765 115.308 15.5717Z" fill="#21455F"/>
<path d="M57.1876 9.27559C59.1155 8.32085 61.8829 8.70367 63.059 10.6408C63.6725 11.5356 63.7001 12.6518 63.737 13.6988C61.6015 13.768 59.4661 13.6988 57.3352 13.7357C57.8333 15.7236 60.5407 15.9865 61.8737 14.6766C62.3026 15.1332 62.7362 15.5944 63.1697 16.051C61.0342 18.2511 56.5834 17.7668 55.3012 14.8565C54.4248 12.8732 55.1859 10.2488 57.1876 9.27559ZM57.2937 12.3566C58.705 12.3566 60.1118 12.3566 61.5231 12.3612C61.2418 11.5079 60.6422 10.6593 59.669 10.5855C58.5205 10.3964 57.5381 11.2819 57.2937 12.352V12.3566Z" fill="#21455F"/>
<path d="M82.0341 23.0527C82.8274 23.062 83.6207 23.062 84.414 23.0527C84.3909 26.8763 84.414 30.6907 84.4002 34.5143H82.0756C82.0986 34.2883 82.1494 33.8362 82.1724 33.6149C80.4567 35.3168 77.2004 34.874 75.9874 32.7846C75.111 31.2949 75.1433 29.2931 76.0335 27.8218C77.2696 25.8293 80.3275 25.4327 82.0756 26.9732C82.0018 25.6679 82.0387 24.3626 82.0341 23.0527ZM78.787 28.3107C77.1312 29.33 77.5509 32.4387 79.5942 32.6601C81.1808 32.9922 82.403 31.2764 82.0341 29.819C81.8634 28.3476 80.0231 27.4436 78.787 28.3107Z" fill="#21455F"/>
<path d="M51.3525 27.0379C52.7915 25.6496 55.4759 25.6357 56.6981 27.31C57.8881 26.0232 59.899 25.6726 61.4764 26.4106C62.4819 26.9087 63.0262 28.0203 63.0677 29.1042C63.1322 30.903 63.0677 32.711 63.0907 34.5144H60.6739C60.637 32.7294 60.7984 30.9306 60.577 29.1549C60.1435 27.5314 57.556 27.905 57.3669 29.4916C57.1178 31.152 57.33 32.8447 57.247 34.519C56.4583 34.519 55.6788 34.519 54.8947 34.519C54.8117 32.7387 55.0423 30.9353 54.761 29.1734C54.4104 27.6467 51.9751 27.8266 51.6061 29.2564C51.2556 30.9814 51.5047 32.7663 51.4401 34.519C50.6376 34.519 49.8396 34.519 49.0371 34.519C49.0694 31.747 49.0002 28.975 49.074 26.2031C49.8304 26.2261 50.5914 26.2353 51.3525 26.2307V27.0471V27.0379Z" fill="#21455F"/>
<path d="M86.3695 26.9683C87.9469 26.0643 89.861 25.8014 91.6321 26.2303C92.8498 26.5209 93.823 27.6094 93.9291 28.8685C94.0582 30.7411 93.9291 32.6183 93.9982 34.4955C93.2418 34.5186 92.49 34.5139 91.7382 34.5139C91.7613 34.2787 91.812 33.8083 91.8351 33.5777C90.6682 34.823 88.6434 34.966 87.1951 34.1634C85.7469 33.3378 85.6546 30.8887 87.1813 30.1C88.5465 29.3574 90.1608 29.6895 91.646 29.6019C91.5168 29.0991 91.4338 28.4626 90.8988 28.2182C89.7181 27.5679 88.2882 28.0383 87.209 28.6748C86.9276 28.1029 86.6417 27.5356 86.3649 26.959L86.3695 26.9683ZM89.0677 31.0916C88.4312 31.3084 88.1314 32.2124 88.7034 32.6552C89.5797 33.4531 91.0095 32.9596 91.5952 32.0279C91.5952 31.7743 91.586 31.2669 91.5814 31.0132C90.7466 31.0178 89.9025 30.9763 89.0677 31.0916Z" fill="#21455F"/>
<path d="M65.3008 26.2212H67.6669C67.7176 27.937 67.5331 29.6712 67.773 31.3731C68.0866 33.0243 70.711 32.9459 71.1122 31.3962C71.5089 29.7081 71.1999 27.9416 71.2967 26.2212H73.6721C73.6721 28.9886 73.6721 31.7513 73.6721 34.5141C72.911 34.5141 72.15 34.5141 71.3936 34.5141C71.4074 34.2881 71.4305 33.8268 71.4443 33.5962C70.3282 34.7124 68.5663 34.92 67.1457 34.3342C65.9788 33.8591 65.3192 32.5769 65.3192 31.3639C65.2962 29.6481 65.3285 27.937 65.3054 26.2212H65.3008Z" fill="#21455F"/>
</g>
<defs>
<clipPath id="clip0_167_122">
<rect width="128" height="38.9415" fill="white" transform="translate(0 0.941406)"/>
</clipPath>
</defs>
</svg>
