<svg width="198" height="61" viewBox="0 0 198 61" fill="none" xmlns="http://www.w3.org/2000/svg">
<g clip-path="url(#clip0_193_84)">
<path d="M30.0036 60.8899C46.5741 60.8899 60.0071 47.4569 60.0071 30.8864C60.0071 14.3159 46.5741 0.882812 30.0036 0.882812C13.433 0.882812 0 14.3159 0 30.8864C0 47.4569 13.433 60.8899 30.0036 60.8899Z" fill="#EB2027"/>
<path d="M35.0702 22.7848L28.4043 23.6234L29.4489 17.1636L35.461 16.3819C35.7737 16.3393 36.0367 16.6093 35.9869 16.922L35.0702 22.7848Z" fill="white"/>
<path d="M38.0682 43.5144L31.4023 44.3529L32.447 37.8932L38.523 37.0972C38.8073 37.0617 39.0418 37.3033 38.9992 37.5805L38.0682 43.5073V43.5144Z" fill="white"/>
<path d="M31.4178 44.3531L24.752 45.1916L27.3885 30.0975L34.0259 29.2305L31.4178 44.3531Z" fill="white"/>
<path d="M27.3808 30.1044L21.2123 30.879C20.9636 30.9075 20.7575 30.6943 20.7931 30.4455L21.7595 24.4832L28.397 23.6162L27.3808 30.1044Z" fill="white"/>
<path d="M100.627 8.30908C101.835 8.30908 103.043 8.30908 104.251 8.30908C104.251 11.6491 104.251 14.9821 104.251 18.3292C106.106 16.6876 107.876 14.9465 109.638 13.2054C111.145 13.1912 112.644 13.1912 114.151 13.2054C112.409 15.046 110.597 16.8226 108.821 18.6277C110.796 21.0723 112.694 23.588 114.705 26.0042C113.305 25.926 111.905 25.9829 110.512 25.9474C109.972 26.0184 109.723 25.4286 109.403 25.123C108.316 23.723 107.172 22.3657 106.099 20.9657C105.488 21.6195 104.692 22.1525 104.287 22.9626C104.209 23.9575 104.265 24.9596 104.273 25.9616C103.057 25.9616 101.842 25.9616 100.627 25.9616C100.641 20.0774 100.627 14.1932 100.634 8.31619L100.627 8.30908Z" fill="#21455F"/>
<path d="M148.446 8.30908C149.676 8.36593 150.905 8.37304 152.135 8.38015C152.099 11.6918 152.128 15.0105 152.113 18.3292C153.961 16.6308 155.745 14.8755 157.614 13.1983C159.071 13.2054 160.542 13.1202 161.998 13.312C160.137 14.9892 158.459 16.8511 156.669 18.6064C158.594 21.0652 160.542 23.5098 162.467 25.9687C160.911 25.9474 159.355 25.9829 157.806 25.8976C156.612 24.1778 155.19 22.6215 153.918 20.9515C153.314 21.6053 152.582 22.1667 152.135 22.9484C152.064 23.9504 152.113 24.9525 152.12 25.9545C150.884 25.9545 149.64 25.9545 148.411 25.9545C148.432 20.0774 148.368 14.1932 148.446 8.31619V8.30908Z" fill="#21455F"/>
<path d="M76.1029 10.4412C77.3323 10.4555 78.5618 10.4483 79.7983 10.4199C79.8054 11.4788 79.8054 12.5448 79.8054 13.6107C80.8572 13.5965 81.9089 13.5894 82.9607 13.5752C82.9607 14.5061 82.9607 15.4442 82.9749 16.3823C81.9302 16.368 80.8856 16.3609 79.8338 16.3396C79.8267 18.3508 79.6917 20.369 79.8907 22.3659C80.3668 23.7304 81.9658 23.2613 83.0104 23.0126C83.2805 23.8512 83.5861 24.6897 83.9058 25.5212C82.2003 26.3384 80.1678 26.4664 78.3983 25.7983C77.0694 25.2796 76.2308 23.908 76.1527 22.508C76.0461 20.4685 76.1385 18.4289 76.1171 16.3823C75.4491 16.3752 74.7811 16.368 74.106 16.3609C74.106 15.43 74.106 14.499 74.0918 13.561C74.5964 13.5752 75.6055 13.5965 76.1029 13.6107C76.1029 12.5519 76.1029 11.493 76.1029 10.4412Z" fill="#21455F"/>
<path d="M189.352 10.4268C190.588 10.4481 191.825 10.4552 193.061 10.441C193.04 11.4998 193.04 12.5516 193.068 13.6105C194.127 13.5891 195.186 13.582 196.252 13.5749C196.252 14.5059 196.252 15.4368 196.266 16.3678C195.186 16.3607 194.106 16.3678 193.033 16.4033C193.132 18.4073 192.827 20.454 193.225 22.4296C193.694 23.6661 195.222 23.3748 196.167 22.9128C196.515 23.7443 196.863 24.5758 197.226 25.4072C195.165 26.6508 192.038 26.6224 190.318 24.8103C188.648 22.3585 189.579 19.1962 189.387 16.4388C188.712 16.4033 188.037 16.3749 187.362 16.3465C187.369 15.4368 187.362 14.5272 187.348 13.6176C188.016 13.6105 188.684 13.5962 189.359 13.582C189.345 12.5374 189.345 11.4927 189.359 10.441L189.352 10.4268Z" fill="#21455F"/>
<path d="M119.737 14.6056C121.492 12.9 124.25 12.5447 126.474 13.4259C128.286 14.1792 129.224 16.1477 129.274 18.0309C129.374 20.6603 129.231 23.3039 129.345 25.9333C128.087 25.9618 126.836 25.9618 125.579 25.9333C125.564 23.2897 125.778 20.6248 125.465 18.0025C124.982 15.366 120.746 15.636 120.164 18.0878C119.616 20.6603 120.014 23.3466 119.922 25.9618C118.692 25.9547 117.463 25.9475 116.234 25.9475C116.227 21.6979 116.234 17.4482 116.234 13.1985H119.758C119.758 13.5467 119.737 14.2574 119.737 14.6056Z" fill="#21455F"/>
<path d="M137.474 13.0704C139.613 12.7719 141.951 13.1059 143.642 14.5414C146.606 16.9576 146.648 22.0601 143.749 24.5473C140.238 27.6102 133.573 26.4448 132.18 21.7048C130.872 17.9596 133.437 13.4683 137.467 13.0704H137.474ZM137.41 16.318C134.731 17.6967 135.1 22.5646 138.206 23.1545C140.331 23.7159 142.385 21.6692 142.122 19.5586C142.427 17.0855 139.613 15.1313 137.41 16.318Z" fill="#21455F"/>
<path d="M167.571 14.776C168.736 13.5394 170.364 13.042 172.013 12.9141C172.013 14.044 172.013 15.1739 172.027 16.3039C170.371 16.0978 168.338 16.7302 167.955 18.5637C167.585 21.0012 167.82 23.4814 167.791 25.9473C166.541 25.9545 165.29 25.9545 164.039 25.9473C164.103 21.6977 164.06 17.448 164.06 13.2054C165.254 13.2267 166.462 13.0917 167.642 13.3049C167.628 13.6745 167.585 14.4064 167.571 14.776Z" fill="#21455F"/>
<path d="M173.746 14.385C176.325 12.9566 179.495 12.5302 182.323 13.4114C184.306 14.0297 185.493 16.0906 185.464 18.1017C185.479 20.7169 185.429 23.3321 185.471 25.9473C184.299 25.9402 183.126 25.9402 181.954 25.9402C181.982 25.592 182.039 24.9097 182.067 24.5615C180.248 26.7219 176.638 26.7432 174.492 25.0803C172.701 23.6092 172.879 20.4398 174.918 19.253C177.057 18.0875 179.587 18.5494 181.911 18.457C181.662 17.7038 181.549 16.7799 180.795 16.3393C178.948 15.3444 176.759 16.0124 175.075 17.0286C174.591 16.1688 174.144 15.2876 173.746 14.385ZM177.661 23.4245C179.545 24.5757 182.394 22.8844 181.868 20.589C180.49 20.6601 179.005 20.3474 177.697 20.8732C176.61 21.2996 176.61 22.9697 177.661 23.4245Z" fill="#21455F"/>
<path d="M88.1132 13.7241C91.0837 12.2531 95.3476 12.8429 97.1598 15.8276C98.1049 17.2063 98.1476 18.9261 98.2044 20.5392C94.9141 20.6458 91.6238 20.5392 88.3406 20.5961C89.1081 23.659 93.2796 24.0641 95.3334 22.0458C95.9943 22.7494 96.6623 23.46 97.3303 24.1635C94.04 27.5533 87.1823 26.8072 85.2067 22.323C83.8564 19.2672 85.029 15.2236 88.1132 13.7241ZM88.2767 18.4713C90.4512 18.4713 92.6187 18.4713 94.7933 18.4784C94.3598 17.1637 93.436 15.8561 91.9365 15.7424C90.167 15.451 88.6533 16.8154 88.2767 18.4641V18.4713Z" fill="#21455F"/>
<path d="M126.396 34.9512C127.618 34.9654 128.841 34.9654 130.063 34.9512C130.027 40.8424 130.063 46.7195 130.042 52.6108H126.46C126.495 52.2626 126.574 51.5661 126.609 51.225C123.966 53.8473 118.948 53.1651 117.079 49.9458C115.729 47.6504 115.779 44.5662 117.15 42.2993C119.055 39.2293 123.767 38.6181 126.46 40.9917C126.346 38.9805 126.403 36.9694 126.396 34.9512ZM121.393 43.0526C118.842 44.6231 119.488 49.4129 122.637 49.754C125.081 50.2656 126.964 47.622 126.396 45.3764C126.133 43.1094 123.298 41.7165 121.393 43.0526Z" fill="#21455F"/>
<path d="M79.1241 41.0913C81.3413 38.9523 85.4773 38.931 87.3605 41.5106C89.194 39.5279 92.2924 38.9878 94.7228 40.1249C96.272 40.8924 97.1106 42.605 97.1746 44.275C97.274 47.0466 97.1745 49.8323 97.2101 52.6109H93.4863C93.4294 49.8607 93.6782 47.0892 93.3371 44.3532C92.669 41.8517 88.6823 42.4274 88.3909 44.872C88.0072 47.4303 88.3341 50.0384 88.2062 52.6181C86.991 52.6181 85.79 52.6181 84.5819 52.6181C84.454 49.875 84.8093 47.0963 84.3758 44.3816C83.8357 42.0294 80.0835 42.3066 79.5149 44.5096C78.9749 47.1674 79.3586 49.9176 79.2591 52.6181C78.0226 52.6181 76.7932 52.6181 75.5566 52.6181C75.6064 48.3471 75.4998 44.0761 75.6135 39.8051C76.779 39.8406 77.9515 39.8548 79.1241 39.8477V41.1056V41.0913Z" fill="#21455F"/>
<path d="M133.075 40.9848C135.506 39.5919 138.455 39.1869 141.184 39.8478C143.06 40.2955 144.559 41.9726 144.723 43.9127C144.922 46.7979 144.723 49.6902 144.829 52.5826C143.664 52.6181 142.506 52.611 141.347 52.611C141.383 52.2486 141.461 51.5237 141.496 51.1684C139.698 53.0871 136.579 53.3074 134.347 52.0709C132.116 50.7989 131.974 47.0253 134.326 45.8101C136.429 44.666 138.917 45.1776 141.205 45.0426C141.006 44.268 140.878 43.2873 140.054 42.9107C138.235 41.9087 136.032 42.6335 134.369 43.6142C133.935 42.733 133.494 41.8589 133.068 40.9706L133.075 40.9848ZM137.233 47.338C136.252 47.672 135.79 49.0649 136.671 49.7471C138.021 50.9765 140.224 50.2161 141.127 48.7806C141.127 48.3898 141.113 47.608 141.106 47.2172C139.819 47.2243 138.519 47.1603 137.233 47.338Z" fill="#21455F"/>
<path d="M100.613 39.8335H104.259C104.337 42.4771 104.053 45.1491 104.422 47.7714C104.906 50.3156 108.949 50.1947 109.567 47.807C110.179 45.206 109.702 42.4842 109.852 39.8335H113.512C113.512 44.0974 113.512 48.3542 113.512 52.6109C112.339 52.6109 111.166 52.6109 110.001 52.6109C110.022 52.2627 110.058 51.5521 110.079 51.1968C108.359 52.9165 105.645 53.2363 103.456 52.3338C101.658 51.6018 100.642 49.6262 100.642 47.7572C100.606 45.1136 100.656 42.4771 100.62 39.8335H100.613Z" fill="#21455F"/>
</g>
<defs>
<clipPath id="clip0_193_84">
<rect width="197.219" height="60" fill="white" transform="translate(0 0.882812)"/>
</clipPath>
</defs>
</svg>
